# xmcd CD database file
#
# Track frame offsets:
#	150
#	11289
#	35778
#	48967
#	62703
#	72239
#	82381
#	92381
#	110539
#	124794
#	138683
#	157421
#	166720
#	179020
#	192376
#	205874
#	216518
#	227657
#	252146
#	265335
#	279071
#	288607
#	298749
#	308749
#	326907
#	340021
#
# Disc length: 4718 seconds
#
# Revision: 0
# Processed by: cddbd v1.5.2PL0 Copyright (c) Steve Scherf et al.
# Submitted via: CDex 1.70beta2
#
DISCID=95126c1a
DTITLE=Miles Davis - Ascenseur Pour L'Echafaud (Lift To The Scaffold): Original Soundtrack
DYEAR=1957
DGENRE=Jazz
TTITLE0=Générique
TTITLE1=L'Assassinat De Carala
TTITLE2=Sur L'Autoroute
TTITLE3=Julien Dans L'Ascenseur
TTITLE4=Florence Sur Les Champs-Élysées
TTITLE5=Dîner Au Motel
TTITLE6=Évasion De Julien
TTITLE7=Visite Du Vigile
TTITLE8=Au Bar Du Petit Bac
TTITLE9=Chez Le Photographe Du Motel
TTITLE10=Nuit Sur Les Champs-Élysées
TTITLE11=Nuit Sur Les Champs-Élysées
TTITLE12=Nuit Sur Les Champs-Élysées
TTITLE13=Nuit Sur Les Champs-Élysées
TTITLE14=Assassinat
TTITLE15=Assassinat
TTITLE16=Assassinat
TTITLE17=Motel (Diner Au Motel)
TTITLE18=Final
TTITLE19=Final
TTITLE20=Final
TTITLE21=Ascenseur (Evasion De Julien)
TTITLE22=Le Petit Bal
TTITLE23=Le Petit Bal
TTITLE24=Séquence Voiture
TTITLE25=Séquence Voiture
EXTD=YEAR: 1957
EXTT0=
EXTT1=
EXTT2=
EXTT3=
EXTT4=
EXTT5=
EXTT6=
EXTT7=
EXTT8=
EXTT9=
EXTT10=
EXTT11=
EXTT12=
EXTT13=
EXTT14=
EXTT15=
EXTT16=
EXTT17=
EXTT18=
EXTT19=
EXTT20=
EXTT21=
EXTT22=
EXTT23=
EXTT24=
EXTT25=
PLAYORDER=
